solid stl nonplaner test2
   facet normal -1.000000e+000 0.000000e+000 0.000000e+000
      outer loop
         vertex -1.000000e+000 0.000000e+000 5.000000e-001
         vertex -1.000000e+000 1.000000e-001 5.000000e-001
         vertex -1.000000e+000 0.000000e+000 -5.000000e-001
      endloop
   endfacet
   facet normal -1.000000e+000 0.000000e+000 0.000000e+000
      outer loop
         vertex -1.000000e+000 0.000000e+000 -5.000000e-001
         vertex -1.000000e+000 1.000000e-001 5.000000e-001
         vertex -1.000000e+000 1.000000e-001 -5.000000e-001
      endloop
   endfacet
   facet normal 0.000000e+000 -1.000000e+000 0.000000e+000
      outer loop
         vertex 1.000000e+000 0.000000e+000 5.000000e-001
         vertex -1.000000e+000 0.000000e+000 5.000000e-001
         vertex 1.000000e+000 0.000000e+000 -5.000000e-001
      endloop
   endfacet
   facet normal 0.000000e+000 -1.000000e+000 0.000000e+000
      outer loop
         vertex 1.000000e+000 0.000000e+000 -5.000000e-001
         vertex -1.000000e+000 0.000000e+000 5.000000e-001
         vertex -1.000000e+000 0.000000e+000 -5.000000e-001
      endloop
   endfacet
   facet normal 1.000000e+000 0.000000e+000 0.000000e+000
      outer loop
         vertex 1.000000e+000 1.000000e-001 5.000000e-001
         vertex 1.000000e+000 0.000000e+000 5.000000e-001
         vertex 1.000000e+000 1.000000e-001 -5.000000e-001
      endloop
   endfacet
   facet normal 1.000000e+000 0.000000e+000 0.000000e+000
      outer loop
         vertex 1.000000e+000 1.000000e-001 -5.000000e-001
         vertex 1.000000e+000 0.000000e+000 5.000000e-001
         vertex 1.000000e+000 0.000000e+000 -5.000000e-001
      endloop
   endfacet
   facet normal 6.710700e-001 7.413940e-001 0.000000e+000
      outer loop
         vertex 1.000000e+000 1.000000e-001 5.000000e-001
         vertex 1.000000e+000 1.000000e-001 -5.000000e-001
         vertex 9.172765e-001 1.729888e-001 -5.000000e-001
      endloop
   endfacet
   facet normal 6.520409e-001 7.581838e-001 0.000000e+000
      outer loop
         vertex 1.000000e+000 1.000000e-001 5.000000e-001
         vertex 9.172765e-001 1.729888e-001 -5.000000e-001
         vertex 9.172765e-001 1.729888e-001 5.000000e-001
      endloop
   endfacet
   facet normal 6.127611e-001 7.902681e-001 0.000000e+000
      outer loop
         vertex 9.172765e-001 1.729888e-001 5.000000e-001
         vertex 9.172765e-001 1.729888e-001 -5.000000e-001
         vertex 8.292432e-001 2.394771e-001 -5.000000e-001
      endloop
   endfacet
   facet normal 5.925106e-001 8.055626e-001 0.000000e+000
      outer loop
         vertex 9.172765e-001 1.729888e-001 5.000000e-001
         vertex 8.292432e-001 2.394771e-001 -5.000000e-001
         vertex 8.292432e-001 2.394771e-001 5.000000e-001
      endloop
   endfacet
   facet normal 5.509052e-001 8.345677e-001 0.000000e+000
      outer loop
         vertex 8.292432e-001 2.394771e-001 5.000000e-001
         vertex 8.292432e-001 2.394771e-001 -5.000000e-001
         vertex 7.364097e-001 2.990800e-001 -5.000000e-001
      endloop
   endfacet
   facet normal 5.295505e-001 8.482783e-001 0.000000e+000
      outer loop
         vertex 8.292432e-001 2.394771e-001 5.000000e-001
         vertex 7.364097e-001 2.990800e-001 -5.000000e-001
         vertex 7.364097e-001 2.990800e-001 5.000000e-001
      endloop
   endfacet
   facet normal 4.858604e-001 8.740364e-001 0.000000e+000
      outer loop
         vertex 7.364097e-001 2.990800e-001 5.000000e-001
         vertex 7.364097e-001 2.990800e-001 -5.000000e-001
         vertex 6.393135e-001 3.514524e-001 -5.000000e-001
      endloop
   endfacet
   facet normal 4.635250e-001 8.860838e-001 0.000000e+000
      outer loop
         vertex 7.364097e-001 2.990800e-001 5.000000e-001
         vertex 6.393135e-001 3.514524e-001 -5.000000e-001
         vertex 6.393135e-001 3.514524e-001 5.000000e-001
      endloop
   endfacet
   facet normal 4.180031e-001 9.084457e-001 0.000000e+000
      outer loop
         vertex 6.393135e-001 3.514524e-001 5.000000e-001
         vertex 6.393135e-001 3.514524e-001 -5.000000e-001
         vertex 5.385165e-001 3.962912e-001 -5.000000e-001
      endloop
   endfacet
   facet normal 3.948164e-001 9.187600e-001 0.000000e+000
      outer loop
         vertex 6.393135e-001 3.514524e-001 5.000000e-001
         vertex 5.385165e-001 3.962912e-001 -5.000000e-001
         vertex 5.385165e-001 3.962912e-001 5.000000e-001
      endloop
   endfacet
   facet normal 3.477261e-001 9.375961e-001 0.000000e+000
      outer loop
         vertex 5.385165e-001 3.962912e-001 5.000000e-001
         vertex 5.385165e-001 3.962912e-001 -5.000000e-001
         vertex 4.346022e-001 4.333369e-001 -5.000000e-001
      endloop
   endfacet
   facet normal 3.238223e-001 9.461179e-001 0.000000e+000
      outer loop
         vertex 5.385165e-001 3.962912e-001 5.000000e-001
         vertex 4.346022e-001 4.333369e-001 -5.000000e-001
         vertex 4.346022e-001 4.333369e-001 5.000000e-001
      endloop
   endfacet
   facet normal 2.754363e-001 9.613193e-001 0.000000e+000
      outer loop
         vertex 4.346022e-001 4.333369e-001 5.000000e-001
         vertex 4.346022e-001 4.333369e-001 -5.000000e-001
         vertex 3.281723e-001 4.623749e-001 -5.000000e-001
      endloop
   endfacet
   facet normal 2.509538e-001 9.679991e-001 0.000000e+000
      outer loop
         vertex 4.346022e-001 4.333369e-001 5.000000e-001
         vertex 3.281723e-001 4.623749e-001 -5.000000e-001
         vertex 3.281723e-001 4.623749e-001 5.000000e-001
      endloop
   endfacet
   facet normal 2.015520e-001 9.794778e-001 0.000000e+000
      outer loop
         vertex 3.281723e-001 4.623749e-001 5.000000e-001
         vertex 3.281723e-001 4.623749e-001 -5.000000e-001
         vertex 2.198426e-001 4.832373e-001 -5.000000e-001
      endloop
   endfacet
   facet normal 1.766326e-001 9.842768e-001 0.000000e+000
      outer loop
         vertex 3.281723e-001 4.623749e-001 5.000000e-001
         vertex 2.198426e-001 4.832373e-001 -5.000000e-001
         vertex 2.198426e-001 4.832373e-001 5.000000e-001
      endloop
   endfacet
   facet normal 1.265011e-001 9.919664e-001 0.000000e+000
      outer loop
         vertex 2.198426e-001 4.832373e-001 5.000000e-001
         vertex 2.198426e-001 4.832373e-001 -5.000000e-001
         vertex 1.102404e-001 4.958033e-001 -5.000000e-001
      endloop
   endfacet
   facet normal 1.012889e-001 9.948570e-001 0.000000e+000
      outer loop
         vertex 2.198426e-001 4.832373e-001 5.000000e-001
         vertex 1.102404e-001 4.958033e-001 -5.000000e-001
         vertex 1.102404e-001 4.958033e-001 5.000000e-001
      endloop
   endfacet
   facet normal 5.071786e-002 9.987130e-001 0.000000e+000
      outer loop
         vertex 1.102404e-001 4.958033e-001 5.000000e-001
         vertex 1.102404e-001 4.958033e-001 -5.000000e-001
         vertex 5.551425e-016 5.000000e-001 -5.000000e-001
      endloop
   endfacet
   facet normal 2.535893e-002 9.996784e-001 0.000000e+000
      outer loop
         vertex 1.102404e-001 4.958033e-001 5.000000e-001
         vertex 5.551425e-016 5.000000e-001 -5.000000e-001
         vertex 5.551425e-016 5.000000e-001 5.000000e-001
      endloop
   endfacet
   facet normal -2.535893e-002 9.996784e-001 0.000000e+000
      outer loop
         vertex 5.551425e-016 5.000000e-001 5.000000e-001
         vertex 5.551425e-016 5.000000e-001 -5.000000e-001
         vertex -1.102404e-001 4.958033e-001 -5.000000e-001
      endloop
   endfacet
   facet normal -5.071786e-002 9.987130e-001 0.000000e+000
      outer loop
         vertex 5.551425e-016 5.000000e-001 5.000000e-001
         vertex -1.102404e-001 4.958033e-001 -5.000000e-001
         vertex -1.102404e-001 4.958033e-001 5.000000e-001
      endloop
   endfacet
   facet normal -1.012889e-001 9.948570e-001 0.000000e+000
      outer loop
         vertex -1.102404e-001 4.958033e-001 5.000000e-001
         vertex -1.102404e-001 4.958033e-001 -5.000000e-001
         vertex -2.198426e-001 4.832373e-001 -5.000000e-001
      endloop
   endfacet
   facet normal -1.265011e-001 9.919664e-001 0.000000e+000
      outer loop
         vertex -1.102404e-001 4.958033e-001 5.000000e-001
         vertex -2.198426e-001 4.832373e-001 -5.000000e-001
         vertex -2.198426e-001 4.832373e-001 5.000000e-001
      endloop
   endfacet
   facet normal -1.766326e-001 9.842768e-001 0.000000e+000
      outer loop
         vertex -2.198426e-001 4.832373e-001 5.000000e-001
         vertex -2.198426e-001 4.832373e-001 -5.000000e-001
         vertex -3.281723e-001 4.623749e-001 -5.000000e-001
      endloop
   endfacet
   facet normal -2.015520e-001 9.794778e-001 0.000000e+000
      outer loop
         vertex -2.198426e-001 4.832373e-001 5.000000e-001
         vertex -3.281723e-001 4.623749e-001 -5.000000e-001
         vertex -3.281723e-001 4.623749e-001 5.000000e-001
      endloop
   endfacet
   facet normal -2.509538e-001 9.679991e-001 0.000000e+000
      outer loop
         vertex -3.281723e-001 4.623749e-001 5.000000e-001
         vertex -3.281723e-001 4.623749e-001 -5.000000e-001
         vertex -4.346022e-001 4.333369e-001 -5.000000e-001
      endloop
   endfacet
   facet normal -2.754363e-001 9.613193e-001 0.000000e+000
      outer loop
         vertex -3.281723e-001 4.623749e-001 5.000000e-001
         vertex -4.346022e-001 4.333369e-001 -5.000000e-001
         vertex -4.346022e-001 4.333369e-001 5.000000e-001
      endloop
   endfacet
   facet normal -3.238223e-001 9.461179e-001 0.000000e+000
      outer loop
         vertex -4.346022e-001 4.333369e-001 5.000000e-001
         vertex -4.346022e-001 4.333369e-001 -5.000000e-001
         vertex -5.385165e-001 3.962912e-001 -5.000000e-001
      endloop
   endfacet
   facet normal -3.477261e-001 9.375961e-001 0.000000e+000
      outer loop
         vertex -4.346022e-001 4.333369e-001 5.000000e-001
         vertex -5.385165e-001 3.962912e-001 -5.000000e-001
         vertex -5.385165e-001 3.962912e-001 5.000000e-001
      endloop
   endfacet
   facet normal -3.948164e-001 9.187600e-001 0.000000e+000
      outer loop
         vertex -5.385165e-001 3.962912e-001 5.000000e-001
         vertex -5.385165e-001 3.962912e-001 -5.000000e-001
         vertex -6.393135e-001 3.514524e-001 -5.000000e-001
      endloop
   endfacet
   facet normal -4.180031e-001 9.084457e-001 0.000000e+000
      outer loop
         vertex -5.385165e-001 3.962912e-001 5.000000e-001
         vertex -6.393135e-001 3.514524e-001 -5.000000e-001
         vertex -6.393135e-001 3.514524e-001 5.000000e-001
      endloop
   endfacet
   facet normal -4.635250e-001 8.860838e-001 0.000000e+000
      outer loop
         vertex -6.393135e-001 3.514524e-001 5.000000e-001
         vertex -6.393135e-001 3.514524e-001 -5.000000e-001
         vertex -7.364097e-001 2.990800e-001 -5.000000e-001
      endloop
   endfacet
   facet normal -4.858604e-001 8.740364e-001 0.000000e+000
      outer loop
         vertex -6.393135e-001 3.514524e-001 5.000000e-001
         vertex -7.364097e-001 2.990800e-001 -5.000000e-001
         vertex -7.364097e-001 2.990800e-001 5.000000e-001
      endloop
   endfacet
   facet normal -5.295505e-001 8.482783e-001 0.000000e+000
      outer loop
         vertex -7.364097e-001 2.990800e-001 5.000000e-001
         vertex -7.364097e-001 2.990800e-001 -5.000000e-001
         vertex -8.292432e-001 2.394771e-001 -5.000000e-001
      endloop
   endfacet
   facet normal -5.509052e-001 8.345678e-001 0.000000e+000
      outer loop
         vertex -7.364097e-001 2.990800e-001 5.000000e-001
         vertex -8.292432e-001 2.394771e-001 -5.000000e-001
         vertex -8.292432e-001 2.394771e-001 5.000000e-001
      endloop
   endfacet
   facet normal -5.925106e-001 8.055626e-001 0.000000e+000
      outer loop
         vertex -8.292432e-001 2.394771e-001 5.000000e-001
         vertex -8.292432e-001 2.394771e-001 -5.000000e-001
         vertex -9.172765e-001 1.729888e-001 -5.000000e-001
      endloop
   endfacet
   facet normal -6.127612e-001 7.902681e-001 0.000000e+000
      outer loop
         vertex -8.292432e-001 2.394771e-001 5.000000e-001
         vertex -9.172765e-001 1.729888e-001 -5.000000e-001
         vertex -9.172765e-001 1.729888e-001 5.000000e-001
      endloop
   endfacet
   facet normal -6.520409e-001 7.581838e-001 0.000000e+000
      outer loop
         vertex -9.172765e-001 1.729888e-001 5.000000e-001
         vertex -9.172765e-001 1.729888e-001 -5.000000e-001
         vertex -1.000000e+000 1.000000e-001 -5.000000e-001
      endloop
   endfacet
   facet normal -6.710700e-001 7.413939e-001 0.000000e+000
      outer loop
         vertex -9.172765e-001 1.729888e-001 5.000000e-001
         vertex -1.000000e+000 1.000000e-001 -5.000000e-001
         vertex -1.000000e+000 1.000000e-001 5.000000e-001
      endloop
   endfacet
   facet normal 0.000000e+000 0.000000e+000 1.000000e+000
      outer loop
         vertex 1.000000e+000 0.000000e+000 5.000000e-001
         vertex 1.000000e+000 1.000000e-001 5.000000e-001
         vertex -1.000000e+000 0.000000e+000 5.000000e-001
      endloop
   endfacet
   facet normal 0.000000e+000 0.000000e+000 1.000000e+000
      outer loop
         vertex -1.000000e+000 0.000000e+000 5.000000e-001
         vertex 1.000000e+000 1.000000e-001 5.000000e-001
         vertex 9.172765e-001 1.729888e-001 5.000000e-001
      endloop
   endfacet
   facet normal 0.000000e+000 0.000000e+000 1.000000e+000
      outer loop
         vertex -1.000000e+000 0.000000e+000 5.000000e-001
         vertex 9.172765e-001 1.729888e-001 5.000000e-001
         vertex 8.292432e-001 2.394771e-001 5.000000e-001
      endloop
   endfacet
   facet normal 0.000000e+000 0.000000e+000 1.000000e+000
      outer loop
         vertex 4.346022e-001 4.333369e-001 5.000000e-001
         vertex 3.281723e-001 4.623749e-001 5.000000e-001
         vertex -1.000000e+000 0.000000e+000 5.000000e-001
      endloop
   endfacet
   facet normal 0.000000e+000 0.000000e+000 1.000000e+000
      outer loop
         vertex -1.000000e+000 0.000000e+000 5.000000e-001
         vertex 3.281723e-001 4.623749e-001 5.000000e-001
         vertex 2.198426e-001 4.832373e-001 5.000000e-001
      endloop
   endfacet
   facet normal 0.000000e+000 0.000000e+000 1.000000e+000
      outer loop
         vertex -1.000000e+000 0.000000e+000 5.000000e-001
         vertex 2.198426e-001 4.832373e-001 5.000000e-001
         vertex -2.198426e-001 4.832373e-001 5.000000e-001
      endloop
   endfacet
   facet normal 0.000000e+000 0.000000e+000 1.000000e+000
      outer loop
         vertex -2.198426e-001 4.832373e-001 5.000000e-001
         vertex 2.198426e-001 4.832373e-001 5.000000e-001
         vertex -1.102404e-001 4.958033e-001 5.000000e-001
      endloop
   endfacet
   facet normal 0.000000e+000 0.000000e+000 1.000000e+000
      outer loop
         vertex -1.102404e-001 4.958033e-001 5.000000e-001
         vertex 2.198426e-001 4.832373e-001 5.000000e-001
         vertex 1.102404e-001 4.958033e-001 5.000000e-001
      endloop
   endfacet
   facet normal 0.000000e+000 0.000000e+000 1.000000e+000
      outer loop
         vertex -1.102404e-001 4.958033e-001 5.000000e-001
         vertex 1.102404e-001 4.958033e-001 5.000000e-001
         vertex 5.551425e-016 5.000000e-001 5.000000e-001
      endloop
   endfacet
   facet normal 0.000000e+000 0.000000e+000 1.000000e+000
      outer loop
         vertex -2.198426e-001 4.832373e-001 5.000000e-001
         vertex -3.281723e-001 4.623749e-001 5.000000e-001
         vertex -1.000000e+000 0.000000e+000 5.000000e-001
      endloop
   endfacet
   facet normal 0.000000e+000 0.000000e+000 1.000000e+000
      outer loop
         vertex -1.000000e+000 0.000000e+000 5.000000e-001
         vertex -3.281723e-001 4.623749e-001 5.000000e-001
         vertex -4.346022e-001 4.333369e-001 5.000000e-001
      endloop
   endfacet
   facet normal 0.000000e+000 0.000000e+000 1.000000e+000
      outer loop
         vertex -1.000000e+000 0.000000e+000 5.000000e-001
         vertex -4.346022e-001 4.333369e-001 5.000000e-001
         vertex -5.385165e-001 3.962912e-001 5.000000e-001
      endloop
   endfacet
   facet normal 0.000000e+000 0.000000e+000 1.000000e+000
      outer loop
         vertex -1.000000e+000 1.000000e-001 5.000000e-001
         vertex -1.000000e+000 0.000000e+000 5.000000e-001
         vertex -9.172765e-001 1.729888e-001 5.000000e-001
      endloop
   endfacet
   facet normal 0.000000e+000 0.000000e+000 1.000000e+000
      outer loop
         vertex -9.172765e-001 1.729888e-001 5.000000e-001
         vertex -1.000000e+000 0.000000e+000 5.000000e-001
         vertex -5.385165e-001 3.962912e-001 5.000000e-001
      endloop
   endfacet
   facet normal 0.000000e+000 0.000000e+000 1.000000e+000
      outer loop
         vertex -9.172765e-001 1.729888e-001 5.000000e-001
         vertex -5.385165e-001 3.962912e-001 5.000000e-001
         vertex -8.292432e-001 2.394771e-001 5.000000e-001
      endloop
   endfacet
   facet normal 0.000000e+000 0.000000e+000 1.000000e+000
      outer loop
         vertex -8.292432e-001 2.394771e-001 5.000000e-001
         vertex -5.385165e-001 3.962912e-001 5.000000e-001
         vertex -6.393135e-001 3.514524e-001 5.000000e-001
      endloop
   endfacet
   facet normal 0.000000e+000 0.000000e+000 1.000000e+000
      outer loop
         vertex -8.292432e-001 2.394771e-001 5.000000e-001
         vertex -6.393135e-001 3.514524e-001 5.000000e-001
         vertex -7.364097e-001 2.990800e-001 5.000000e-001
      endloop
   endfacet
   facet normal 0.000000e+000 0.000000e+000 1.000000e+000
      outer loop
         vertex 5.385165e-001 3.962912e-001 5.000000e-001
         vertex 4.346022e-001 4.333369e-001 5.000000e-001
         vertex 6.393135e-001 3.514524e-001 5.000000e-001
      endloop
   endfacet
   facet normal 0.000000e+000 0.000000e+000 1.000000e+000
      outer loop
         vertex 6.393135e-001 3.514524e-001 5.000000e-001
         vertex 4.346022e-001 4.333369e-001 5.000000e-001
         vertex -1.000000e+000 0.000000e+000 5.000000e-001
      endloop
   endfacet
   facet normal 0.000000e+000 0.000000e+000 1.000000e+000
      outer loop
         vertex 6.393135e-001 3.514524e-001 5.000000e-001
         vertex -1.000000e+000 0.000000e+000 5.000000e-001
         vertex 7.364097e-001 2.990800e-001 5.000000e-001
      endloop
   endfacet
   facet normal 0.000000e+000 0.000000e+000 1.000000e+000
      outer loop
         vertex 7.364097e-001 2.990800e-001 5.000000e-001
         vertex -1.000000e+000 0.000000e+000 5.000000e-001
         vertex 8.292432e-001 2.394771e-001 5.000000e-001
      endloop
   endfacet
   facet normal 0.000000e+000 0.000000e+000 -1.000000e+000
      outer loop
         vertex 2.198426e-001 4.832373e-001 -5.000000e-001
         vertex 3.281723e-001 4.623749e-001 -5.000000e-001
         vertex 4.346022e-001 4.333369e-001 -5.000000e-001
      endloop
   endfacet
   facet normal 0.000000e+000 0.000000e+000 -1.000000e+000
      outer loop
         vertex 6.393135e-001 3.514524e-001 -5.000000e-001
         vertex 7.364097e-001 2.990800e-001 -5.000000e-001
         vertex -1.000000e+000 0.000000e+000 -5.000000e-001
      endloop
   endfacet
   facet normal 0.000000e+000 0.000000e+000 -1.000000e+000
      outer loop
         vertex -1.000000e+000 0.000000e+000 -5.000000e-001
         vertex -1.000000e+000 1.000000e-001 -5.000000e-001
         vertex -9.172765e-001 1.729888e-001 -5.000000e-001
      endloop
   endfacet
   facet normal 0.000000e+000 0.000000e+000 -1.000000e+000
      outer loop
         vertex -4.346022e-001 4.333369e-001 -5.000000e-001
         vertex -3.281723e-001 4.623749e-001 -5.000000e-001
         vertex -5.385165e-001 3.962912e-001 -5.000000e-001
      endloop
   endfacet
   facet normal 0.000000e+000 0.000000e+000 -1.000000e+000
      outer loop
         vertex -5.385165e-001 3.962912e-001 -5.000000e-001
         vertex -3.281723e-001 4.623749e-001 -5.000000e-001
         vertex -1.000000e+000 0.000000e+000 -5.000000e-001
      endloop
   endfacet
   facet normal 0.000000e+000 0.000000e+000 -1.000000e+000
      outer loop
         vertex 1.000000e+000 1.000000e-001 -5.000000e-001
         vertex 1.000000e+000 0.000000e+000 -5.000000e-001
         vertex 9.172765e-001 1.729888e-001 -5.000000e-001
      endloop
   endfacet
   facet normal 0.000000e+000 0.000000e+000 -1.000000e+000
      outer loop
         vertex 9.172765e-001 1.729888e-001 -5.000000e-001
         vertex 1.000000e+000 0.000000e+000 -5.000000e-001
         vertex -1.000000e+000 0.000000e+000 -5.000000e-001
      endloop
   endfacet
   facet normal 0.000000e+000 0.000000e+000 -1.000000e+000
      outer loop
         vertex 9.172765e-001 1.729888e-001 -5.000000e-001
         vertex -1.000000e+000 0.000000e+000 -5.000000e-001
         vertex 8.292432e-001 2.394771e-001 -5.000000e-001
      endloop
   endfacet
   facet normal 0.000000e+000 0.000000e+000 -1.000000e+000
      outer loop
         vertex 8.292432e-001 2.394771e-001 -5.000000e-001
         vertex -1.000000e+000 0.000000e+000 -5.000000e-001
         vertex 7.364097e-001 2.990800e-001 -5.000000e-001
      endloop
   endfacet
   facet normal 0.000000e+000 0.000000e+000 -1.000000e+000
      outer loop
         vertex -6.393135e-001 3.514524e-001 -5.000000e-001
         vertex -5.385165e-001 3.962912e-001 -5.000000e-001
         vertex -7.364097e-001 2.990800e-001 -5.000000e-001
      endloop
   endfacet
   facet normal 0.000000e+000 0.000000e+000 -1.000000e+000
      outer loop
         vertex -7.364097e-001 2.990800e-001 -5.000000e-001
         vertex -5.385165e-001 3.962912e-001 -5.000000e-001
         vertex -1.000000e+000 0.000000e+000 -5.000000e-001
      endloop
   endfacet
   facet normal 0.000000e+000 0.000000e+000 -1.000000e+000
      outer loop
         vertex -7.364097e-001 2.990800e-001 -5.000000e-001
         vertex -1.000000e+000 0.000000e+000 -5.000000e-001
         vertex -8.292432e-001 2.394771e-001 -5.000000e-001
      endloop
   endfacet
   facet normal 0.000000e+000 0.000000e+000 -1.000000e+000
      outer loop
         vertex -8.292432e-001 2.394771e-001 -5.000000e-001
         vertex -1.000000e+000 0.000000e+000 -5.000000e-001
         vertex -9.172765e-001 1.729888e-001 -5.000000e-001
      endloop
   endfacet
   facet normal 0.000000e+000 0.000000e+000 -1.000000e+000
      outer loop
         vertex -3.281723e-001 4.623749e-001 -5.000000e-001
         vertex -2.198426e-001 4.832373e-001 -5.000000e-001
         vertex -1.000000e+000 0.000000e+000 -5.000000e-001
      endloop
   endfacet
   facet normal 0.000000e+000 0.000000e+000 -1.000000e+000
      outer loop
         vertex -1.000000e+000 0.000000e+000 -5.000000e-001
         vertex -2.198426e-001 4.832373e-001 -5.000000e-001
         vertex -1.102404e-001 4.958033e-001 -5.000000e-001
      endloop
   endfacet
   facet normal 0.000000e+000 0.000000e+000 -1.000000e+000
      outer loop
         vertex -1.000000e+000 0.000000e+000 -5.000000e-001
         vertex -1.102404e-001 4.958033e-001 -5.000000e-001
         vertex 5.551425e-016 5.000000e-001 -5.000000e-001
      endloop
   endfacet
   facet normal 0.000000e+000 0.000000e+000 -1.000000e+000
      outer loop
         vertex 5.385165e-001 3.962912e-001 -5.000000e-001
         vertex 6.393135e-001 3.514524e-001 -5.000000e-001
         vertex 4.346022e-001 4.333369e-001 -5.000000e-001
      endloop
   endfacet
   facet normal 0.000000e+000 0.000000e+000 -1.000000e+000
      outer loop
         vertex 4.346022e-001 4.333369e-001 -5.000000e-001
         vertex 6.393135e-001 3.514524e-001 -5.000000e-001
         vertex -1.000000e+000 0.000000e+000 -5.000000e-001
      endloop
   endfacet
   facet normal 0.000000e+000 0.000000e+000 -1.000000e+000
      outer loop
         vertex 4.346022e-001 4.333369e-001 -5.000000e-001
         vertex -1.000000e+000 0.000000e+000 -5.000000e-001
         vertex 2.198426e-001 4.832373e-001 -5.000000e-001
      endloop
   endfacet
   facet normal 0.000000e+000 0.000000e+000 -1.000000e+000
      outer loop
         vertex 2.198426e-001 4.832373e-001 -5.000000e-001
         vertex -1.000000e+000 0.000000e+000 -5.000000e-001
         vertex 5.551425e-016 5.000000e-001 -5.000000e-001
      endloop
   endfacet
   facet normal 0.000000e+000 0.000000e+000 -1.000000e+000
      outer loop
         vertex 2.198426e-001 4.832373e-001 -5.000000e-001
         vertex 5.551425e-016 5.000000e-001 -5.000000e-001
         vertex 1.102404e-001 4.958033e-001 -5.000000e-001
      endloop
   endfacet
endsolid